# xmcd
#
# Track frame offsets:
#	150
#	16577
#	32415
#	46656
#	61875
#	81519
#	98793
#	115162
#	130226
#	146207
#	163187
#	181039
#
# Disc length: 2632 seconds
#
# Revision: 0
# Processed by: cddbd v1.5.2PL0 Copyright (c) Steve Scherf et al.
# Submitted via: dBpowerAMP V4.0
#
DISCID=930a460c
DTITLE=Billy Gilman - Billy Gilman
DYEAR=2006
DGENRE=Country
TTITLE0=Billy The Kid
TTITLE1=Southern Star
TTITLE2=Let Me Remind You Again
TTITLE3=Gonna Find Love
TTITLE4=Designated Driver
TTITLE5=Clueless
TTITLE6=Easy For You
TTITLE7=Almost Over (Gettin' Over You)
TTITLE8=See Yourself In My Eyes
TTITLE9=I Will
TTITLE10=Young Love
TTITLE11=We Go On
EXTD=
EXTT0=
EXTT1=
EXTT2=
EXTT3=
EXTT4=
EXTT5=
EXTT6=
EXTT7=
EXTT8=
EXTT9=
EXTT10=
EXTT11=
PLAYORDER=
